<svg width="1200" height="800" viewBox="0 0 1200 800" fill="none" xmlns="http://www.w3.org/2000/svg">
  <rect width="1200" height="800" fill="#F8F3EC"/>
  <rect x="100" y="140" width="1000" height="520" rx="48" fill="#FFFFFF" stroke="#E3DBCF" stroke-width="4"/>
  <rect x="180" y="220" width="420" height="36" rx="18" fill="#1F4D45"/>
  <rect x="180" y="280" width="360" height="18" rx="9" fill="#D38A3A"/>
  <rect x="180" y="320" width="300" height="14" rx="7" fill="#5D5B57"/>
  <rect x="640" y="220" width="360" height="220" rx="32" fill="#1F4D45"/>
  <rect x="690" y="260" width="260" height="20" rx="10" fill="#D38A3A"/>
  <rect x="690" y="300" width="220" height="14" rx="7" fill="#FFFFFF" fill-opacity="0.7"/>
  <circle cx="860" cy="410" r="70" fill="#D38A3A" fill-opacity="0.7"/>
  <rect x="180" y="420" width="420" height="160" rx="28" fill="#F8F3EC"/>
  <rect x="220" y="460" width="300" height="14" rx="7" fill="#1F4D45"/>
  <rect x="220" y="490" width="260" height="12" rx="6" fill="#5D5B57"/>
  <rect x="220" y="518" width="220" height="12" rx="6" fill="#D38A3A"/>
</svg>
